<svg width="51" height="51" viewBox="0 0 51 51" fill="none" xmlns="http://www.w3.org/2000/svg">
<rect x="0.963379" y="1.07593" width="49" height="49" rx="10.75" fill="#FBFBFB" stroke="url(#paint0_linear_202_42)"/>
<path fill-rule="evenodd" clip-rule="evenodd" d="M22.8599 8.88062C25.9266 8.88862 28.4102 11.3771 28.4102 14.4457C28.4102 17.5169 25.9224 20.007 22.852 20.0108C25.9224 20.0145 28.4102 22.5047 28.4102 25.5759C28.4102 28.6461 25.924 31.1356 22.8551 31.141C25.924 31.1463 28.4102 33.6358 28.4102 36.706C28.4102 39.7796 25.9186 42.2711 22.8451 42.2711H24.5231C33.7366 42.2628 41.203 34.7913 41.203 25.5759C41.203 16.3605 33.7366 8.88891 24.5231 8.88062L22.8599 8.88062ZM36.7409 19.4141C36.7409 17.9349 35.5417 16.7358 34.0625 16.7358C32.5833 16.7358 31.3842 17.9349 31.3842 19.4141C31.3842 20.8933 32.5833 22.0925 34.0625 22.0925C35.5417 22.0925 36.7409 20.8933 36.7409 19.4141Z" fill="black"/>
<path fill-rule="evenodd" clip-rule="evenodd" d="M9.72382 33.2634C13.9695 33.2634 17.4114 29.8216 17.4114 25.5759C17.4114 21.3302 13.9695 17.8883 9.72382 17.8883L9.72382 25.5759L9.72382 33.2634ZM9.72382 25.5759C11.8467 25.5759 13.5676 27.2968 13.5676 29.4196C13.5676 31.5425 11.8467 33.2634 9.72382 33.2634L9.72382 25.5759ZM9.72382 17.8883C11.8467 17.8883 13.5676 19.6092 13.5676 21.7321C13.5676 23.8549 11.8467 25.5759 9.72382 25.5759L9.72382 17.8883Z" fill="black"/>
<defs>
<linearGradient id="paint0_linear_202_42" x1="13.2187" y1="59.916" x2="25.4634" y2="-6.41366" gradientUnits="userSpaceOnUse">
<stop stop-color="#EDECEC"/>
<stop offset="1" stop-color="white"/>
</linearGradient>
</defs>
</svg>
