<svg width="50" height="51" viewBox="0 0 50 51" fill="none" xmlns="http://www.w3.org/2000/svg">
<rect x="0.5" y="1.07593" width="49" height="49" rx="10.75" fill="#0F0F0F" stroke="url(#paint0_linear_202_47)"/>
<path fill-rule="evenodd" clip-rule="evenodd" d="M22.3966 8.88062C25.4633 8.88862 27.9468 11.3771 27.9468 14.4457C27.9468 17.5169 25.459 20.007 22.3886 20.0108C25.459 20.0145 27.9468 22.5047 27.9468 25.5759C27.9468 28.6461 25.4606 31.1356 22.3917 31.141C25.4606 31.1463 27.9468 33.6358 27.9468 36.706C27.9468 39.7796 25.4552 42.2711 22.3817 42.2711H24.0598C33.2732 42.2628 40.7397 34.7913 40.7397 25.5759C40.7397 16.3605 33.2732 8.88891 24.0598 8.88062L22.3966 8.88062ZM36.2775 19.4141C36.2775 17.9349 35.0784 16.7358 33.5992 16.7358C32.12 16.7358 30.9208 17.9349 30.9208 19.4141C30.9208 20.8933 32.12 22.0925 33.5992 22.0925C35.0784 22.0925 36.2775 20.8933 36.2775 19.4141Z" fill="white"/>
<path fill-rule="evenodd" clip-rule="evenodd" d="M9.26044 33.2634C13.5061 33.2634 16.948 29.8216 16.948 25.5759C16.948 21.3302 13.5061 17.8883 9.26044 17.8883L9.26044 25.5759L9.26044 33.2634ZM9.26044 25.5759C11.3833 25.5759 13.1042 27.2968 13.1042 29.4196C13.1042 31.5425 11.3833 33.2634 9.26044 33.2634L9.26044 25.5759ZM9.26044 17.8883C11.3833 17.8883 13.1042 19.6092 13.1042 21.7321C13.1042 23.8549 11.3833 25.5759 9.26044 25.5759L9.26044 17.8883Z" fill="white"/>
<defs>
<linearGradient id="paint0_linear_202_47" x1="12.7553" y1="59.916" x2="25" y2="-6.41366" gradientUnits="userSpaceOnUse">
<stop/>
<stop offset="1" stop-color="#323232"/>
</linearGradient>
</defs>
</svg>
