<svg width="55" height="59" viewBox="0 0 55 59" fill="none" xmlns="http://www.w3.org/2000/svg">
<rect x="2.46335" y="0.995789" width="50" height="50" rx="11.25" fill="#C6C6C6"/>
<rect x="2.46335" y="0.995789" width="50" height="50" rx="11.25" fill="url(#paint0_linear_58_266)"/>
<g opacity="0.6" filter="url(#filter0_f_58_266)">
<path fill-rule="evenodd" clip-rule="evenodd" d="M24.6116 11.7085C27.9707 11.7173 30.6911 14.4431 30.6911 17.8043C30.6911 21.1683 27.966 23.8959 24.6029 23.9C27.966 23.9041 30.6911 26.6317 30.6911 29.9958C30.6911 33.3587 27.9678 36.0856 24.6063 36.0915C27.9678 36.0974 30.6911 38.8243 30.6911 42.1873C30.6911 45.5539 27.9619 48.283 24.5954 48.283H26.4334C36.5254 48.2739 44.7038 40.09 44.7038 29.9958C44.7038 19.9016 36.5254 11.7176 26.4334 11.7085L24.6116 11.7085ZM39.8162 23.2465C39.8162 21.6263 38.5027 20.3128 36.8824 20.3128C35.2622 20.3128 33.9487 21.6263 33.9487 23.2465C33.9487 24.8668 35.2622 26.1802 36.8824 26.1802C38.5027 26.1802 39.8162 24.8668 39.8162 23.2465Z" fill="url(#paint1_linear_58_266)"/>
<path fill-rule="evenodd" clip-rule="evenodd" d="M10.2229 38.4164C14.8734 38.4164 18.6435 34.6463 18.6435 29.9958C18.6435 25.3452 14.8734 21.5752 10.2229 21.5752L10.2229 29.9958L10.2229 38.4164ZM10.2229 29.9958C12.5482 29.9958 14.4332 31.8808 14.4332 34.2061C14.4332 36.5314 12.5482 38.4164 10.2229 38.4164L10.2229 29.9958ZM10.2229 21.5752C12.5482 21.5752 14.4332 23.4602 14.4332 25.7855C14.4332 28.1108 12.5482 29.9958 10.2229 29.9958L10.2229 21.5752Z" fill="url(#paint2_linear_58_266)"/>
</g>
<path fill-rule="evenodd" clip-rule="evenodd" d="M24.6116 7.70853C27.9707 7.71729 30.6911 10.4431 30.6911 13.8043C30.6911 17.1683 27.966 19.8959 24.6029 19.9C27.966 19.9041 30.6911 22.6317 30.6911 25.9958C30.6911 29.3587 27.9678 32.0856 24.6063 32.0915C27.9678 32.0974 30.6911 34.8243 30.6911 38.1873C30.6911 41.5539 27.9619 44.283 24.5954 44.283H26.4334C36.5254 44.2739 44.7038 36.0899 44.7038 25.9958C44.7038 15.9016 36.5254 7.71762 26.4334 7.70853L24.6116 7.70853ZM39.8162 19.2465C39.8162 17.6262 38.5027 16.3128 36.8824 16.3128C35.2622 16.3128 33.9487 17.6262 33.9487 19.2465C33.9487 20.8667 35.2622 22.1802 36.8824 22.1802C38.5027 22.1802 39.8162 20.8667 39.8162 19.2465Z" fill="url(#paint3_linear_58_266)"/>
<path fill-rule="evenodd" clip-rule="evenodd" d="M10.2229 34.4164C14.8734 34.4164 18.6435 30.6463 18.6435 25.9958C18.6435 21.3452 14.8734 17.5752 10.2229 17.5752L10.2229 25.9958L10.2229 34.4164ZM10.2229 25.9958C12.5482 25.9958 14.4332 27.8808 14.4332 30.2061C14.4332 32.5313 12.5482 34.4163 10.2229 34.4164L10.2229 25.9958ZM10.2229 17.5752C12.5482 17.5752 14.4332 19.4602 14.4332 21.7855C14.4332 24.1107 12.5482 25.9958 10.2229 25.9958L10.2229 17.5752Z" fill="url(#paint4_linear_58_266)"/>
<circle opacity="0.5" cx="36.8804" cy="19.248" r="2.93167" fill="white"/>
<defs>
<filter id="filter0_f_58_266" x="0.22287" y="1.70854" width="54.481" height="56.5745" filterUnits="userSpaceOnUse" color-interpolation-filters="sRGB">
<feFlood flood-opacity="0" result="BackgroundImageFix"/>
<feBlend mode="normal" in="SourceGraphic" in2="BackgroundImageFix" result="shape"/>
<feGaussianBlur stdDeviation="5" result="effect1_foregroundBlur_58_266"/>
</filter>
<linearGradient id="paint0_linear_58_266" x1="27.4633" y1="0.995789" x2="27.4633" y2="50.9958" gradientUnits="userSpaceOnUse">
<stop stop-color="white"/>
<stop offset="1" stop-color="white"/>
</linearGradient>
<linearGradient id="paint1_linear_58_266" x1="40.0905" y1="12.825" x2="16.3418" y2="46.7948" gradientUnits="userSpaceOnUse">
<stop stop-color="#FFA800"/>
<stop offset="1" stop-color="#DA5104"/>
</linearGradient>
<linearGradient id="paint2_linear_58_266" x1="40.0905" y1="12.825" x2="16.3418" y2="46.7948" gradientUnits="userSpaceOnUse">
<stop stop-color="#FFA800"/>
<stop offset="1" stop-color="#DA5104"/>
</linearGradient>
<linearGradient id="paint3_linear_58_266" x1="40.0905" y1="8.825" x2="16.3418" y2="42.7948" gradientUnits="userSpaceOnUse">
<stop stop-color="#FFA800"/>
<stop offset="1" stop-color="#DA5104"/>
</linearGradient>
<linearGradient id="paint4_linear_58_266" x1="40.0905" y1="8.825" x2="16.3418" y2="42.7948" gradientUnits="userSpaceOnUse">
<stop stop-color="#FFA800"/>
<stop offset="1" stop-color="#DA5104"/>
</linearGradient>
</defs>
</svg>
